<?xml version="1.0" standalone="no"?>
<!DOCTYPE svg PUBLIC "-//W3C//DTD SVG 20010904//EN"
 "http://www.w3.org/TR/2001/REC-SVG-20010904/DTD/svg10.dtd">
<svg version="1.0" xmlns="http://www.w3.org/2000/svg"
 width="514.000000pt" height="224.000000pt" viewBox="0 0 514.000000 224.000000"
 preserveAspectRatio="xMidYMid meet">

<g transform="translate(0.000000,224.000000) scale(0.100000,-0.100000)"
fill="#000000" stroke="none">
<path d="M985 2159 c-434 -63 -795 -381 -907 -797 -26 -97 -36 -319 -19 -418
12 -66 44 -185 57 -205 3 -5 20 4 37 22 80 79 207 97 306 44 86 -47 131 -122
131 -217 -1 -98 -67 -191 -162 -226 l-48 -18 46 -38 c75 -63 210 -143 297
-177 168 -64 214 -72 422 -73 178 -1 196 1 289 27 194 54 353 145 493 280 524
509 386 1356 -273 1686 -202 101 -449 142 -669 110z m127 -276 c70 -73 118
-142 118 -170 0 -62 -69 -110 -142 -99 -24 4 -53 6 -65 6 -13 -1 -49 -1 -80
-1 -32 0 -69 0 -83 -1 -41 -1 -113 -1 -140 1 -14 1 -46 -1 -71 -5 -29 -4 -56
-1 -70 7 -22 11 -19 13 51 41 91 34 246 73 357 89 l81 11 -20 34 c-11 19 -23
34 -27 34 -4 0 -59 -17 -123 -39 -115 -39 -143 -40 -136 -6 3 18 256 145 288
145 9 0 36 -21 62 -47z m277 -118 c34 -17 54 -65 41 -99 -22 -59 -103 -75
-145 -30 -34 37 -33 78 4 115 33 32 58 36 100 14z m173 -80 c95 -20 148 -36
148 -45 0 -17 -61 -32 -102 -26 -58 8 -66 8 -120 0 l-46 -6 16 46 c9 25 20 46
24 46 4 0 40 -7 80 -15z m403 -280 c30 -30 32 -64 4 -99 -16 -20 -29 -26 -60
-26 -50 0 -79 27 -79 74 0 68 86 101 135 51z m-940 -10 c36 -35 33 -76 -7
-110 -37 -31 -82 -29 -110 6 -64 76 47 174 117 104z m-196 -84 c13 -13 21 -40
25 -92 12 -125 10 -123 94 -183 42 -31 87 -56 99 -56 40 0 72 -19 79 -45 9
-36 -19 -65 -63 -65 -43 0 -45 25 -2 34 48 9 30 31 -29 34 -52 3 -52 3 -52
-27 0 -17 5 -42 12 -56 11 -25 15 -26 64 -19 106 13 218 -47 263 -139 15 -30
21 -63 21 -108 0 -55 -5 -73 -32 -119 -47 -78 -108 -114 -203 -118 -57 -3 -82
0 -123 18 -164 71 -196 288 -60 405 l41 34 -17 44 c-9 23 -16 61 -16 84 l0 41
-70 33 -69 32 -36 106 c-41 123 -42 134 -15 161 25 25 64 26 89 1z m1006 -55
c12 -18 13 -30 6 -49 -9 -22 -25 -31 -100 -54 l-90 -27 -16 -76 c-28 -127 -31
-135 -49 -138 -10 -2 -22 0 -26 5 -10 10 16 253 28 265 22 22 180 97 204 98
18 0 33 -8 43 -24z m255 -73 c-1 -21 -140 -187 -170 -203 -27 -15 -64 21 -54
53 4 12 15 51 25 87 l17 65 12 -48 12 -47 62 54 c63 56 96 70 96 39z m-1413
-89 c126 -98 153 -124 153 -145 0 -10 -33 -58 -73 -106 l-74 -88 30 -138 c30
-139 29 -168 -6 -154 -16 6 -247 601 -247 636 0 34 43 71 84 71 28 0 54 -15
133 -76z m1228 -210 c132 -69 148 -87 121 -129 -38 -58 -249 -276 -264 -273
-32 6 -22 34 53 147 41 63 75 117 75 121 0 7 -98 40 -118 40 -6 0 -89 -99
-184 -220 -162 -207 -195 -240 -213 -210 -9 14 315 577 339 589 31 15 54 7
191 -65z"/>
<path d="M1048 793 l-26 -4 46 -100 c34 -74 43 -102 34 -111 -8 -8 -15 -8 -27
2 -8 7 -15 16 -15 20 0 4 -17 44 -38 90 l-38 82 -32 -27 c-69 -58 -91 -158
-53 -240 35 -75 102 -115 194 -115 174 0 270 200 160 331 -45 53 -133 84 -205
72z"/>
<path d="M640 960 c0 -5 5 -32 11 -60 l11 -52 24 36 c13 19 24 39 24 44 0 4
-16 16 -35 25 -19 9 -35 12 -35 7z"/>
<path d="M2494 1683 c-29 -6 -69 -50 -83 -92 -6 -18 -14 -76 -17 -127 l-7 -94
-33 0 -34 0 0 -55 0 -55 35 0 35 0 2 -337 3 -338 43 -3 42 -3 0 340 0 341 50
0 50 0 0 55 0 55 -50 0 -50 0 0 65 c0 36 7 81 14 100 13 31 19 35 50 35 40 0
50 19 44 81 -3 31 -6 34 -38 35 -19 1 -45 0 -56 -3z"/>
<path d="M2680 1643 c-36 -46 -16 -143 30 -143 54 0 77 114 31 151 -30 25 -35
24 -61 -8z"/>
<path d="M2898 1478 l-3 -103 -37 -3 -38 -3 0 -54 0 -54 38 -3 37 -3 5 -295
c5 -275 6 -297 26 -330 25 -43 56 -60 112 -60 l42 0 0 55 c0 52 -1 55 -25 55
-14 0 -34 9 -45 20 -19 19 -20 33 -20 290 l0 270 45 0 45 0 0 55 0 55 -45 0
-44 0 -3 103 -3 102 -42 3 -42 3 -3 -103z"/>
<path d="M3853 1379 c-112 -23 -181 -157 -190 -365 -9 -188 31 -331 110 -401
63 -55 161 -57 226 -6 41 34 86 110 96 166 l7 37 -41 0 c-38 0 -42 -3 -61 -43
-39 -82 -122 -102 -183 -44 -38 35 -67 113 -67 179 l0 38 180 0 180 0 0 39 c0
69 -21 192 -42 248 -41 112 -126 171 -215 152z m102 -152 c31 -31 43 -60 60
-144 l7 -33 -136 0 c-155 0 -148 -5 -120 90 34 115 121 155 189 87z"/>
<path d="M3319 1353 c-17 -15 -40 -41 -50 -58 l-19 -30 0 53 0 52 -40 0 -40 0
0 -395 0 -395 39 0 40 0 4 273 c4 296 9 327 58 377 51 51 133 36 162 -29 8
-17 14 -126 17 -321 l5 -295 43 -3 42 -3 0 290 c0 174 -4 311 -11 343 -24 114
-78 168 -167 168 -40 0 -57 -5 -83 -27z"/>
<path d="M4272 1359 c-53 -34 -84 -99 -90 -185 -9 -135 35 -200 170 -255 91
-36 118 -64 118 -121 0 -52 -22 -92 -60 -108 -63 -26 -131 11 -150 82 -10 36
-13 38 -50 38 -39 0 -40 -1 -40 -36 0 -50 45 -139 87 -171 50 -39 141 -43 198
-11 59 35 97 102 102 185 10 137 -30 198 -166 253 -99 39 -121 64 -121 132 0
41 5 54 29 79 57 56 138 26 161 -61 10 -38 13 -40 50 -40 45 0 46 4 29 80 -13
57 -51 115 -92 140 -45 28 -131 27 -175 -1z"/>
<path d="M4733 1360 c-71 -43 -112 -159 -93 -262 19 -98 56 -136 179 -183 90
-34 106 -52 106 -122 0 -49 -3 -58 -33 -84 -37 -33 -68 -36 -118 -13 -26 13
-38 27 -51 65 -17 48 -18 49 -61 49 l-43 0 6 -37 c22 -130 92 -203 195 -203
127 0 215 123 196 273 -13 95 -53 141 -166 187 -41 17 -84 40 -96 51 -42 40
-40 120 4 164 51 51 129 21 156 -60 13 -37 17 -40 53 -40 l38 0 -3 40 c-5 60
-48 141 -90 170 -47 32 -131 35 -179 5z"/>
<path d="M2670 974 l0 -395 43 3 42 3 3 393 2 392 -45 0 -45 0 0 -396z"/>
<path d="M285 789 c-49 -12 -94 -42 -123 -82 l-21 -31 34 -65 c19 -36 63 -101
96 -145 l62 -78 44 5 c100 11 182 117 170 219 -15 123 -138 207 -262 177z"/>
</g>
</svg>
